<svg width="33" height="33" viewBox="0 0 33 33" fill="none" xmlns="http://www.w3.org/2000/svg">
<circle cx="16.5" cy="16.5" r="16.5" fill="#FFF3EE"/>
<path d="M22.1875 11.8125H10.8125C10.5924 11.8125 10.402 11.7222 10.2412 11.5415C10.0804 11.3608 10 11.1411 10 10.8823C10 10.6235 10.0783 10.4014 10.2349 10.2158C10.3914 10.0303 10.584 9.9375 10.8125 9.9375H14.875C14.875 9.68359 14.9533 9.46387 15.1099 9.27832C15.2664 9.09277 15.459 9 15.6875 9H17.3125C17.541 9 17.7336 9.09277 17.8901 9.27832C18.0467 9.46387 18.125 9.68359 18.125 9.9375H22.1875C22.4076 9.9375 22.598 10.0303 22.7588 10.2158C22.9196 10.4014 23 10.6235 23 10.8823C23 11.1411 22.9196 11.3608 22.7588 11.5415C22.598 11.7222 22.4076 11.8125 22.1875 11.8125ZM22.1875 22.125C22.1875 22.6426 22.0288 23.0845 21.7114 23.4507C21.394 23.8169 21.0111 24 20.5625 24H12.4375C11.9889 24 11.606 23.8169 11.2886 23.4507C10.9712 23.0845 10.8125 22.6426 10.8125 22.125V12.75H22.1875V22.125ZM14.0625 15.5625C14.0625 15.3086 13.9821 15.0889 13.8213 14.9033C13.6605 14.7178 13.4679 14.625 13.2437 14.625C13.0194 14.625 12.8289 14.7178 12.6724 14.9033C12.5158 15.0889 12.4375 15.3086 12.4375 15.5625V21.1875C12.4375 21.4512 12.5158 21.6733 12.6724 21.854C12.8289 22.0347 13.0194 22.125 13.2437 22.125C13.4679 22.125 13.6605 22.0347 13.8213 21.854C13.9821 21.6733 14.0625 21.4512 14.0625 21.1875V15.5625ZM17.3125 15.5625C17.3125 15.3086 17.2321 15.0889 17.0713 14.9033C16.9105 14.7178 16.7179 14.625 16.4937 14.625C16.2694 14.625 16.0789 14.7178 15.9224 14.9033C15.7658 15.0889 15.6875 15.3086 15.6875 15.5625V21.1875C15.6875 21.4512 15.7658 21.6733 15.9224 21.854C16.0789 22.0347 16.2694 22.125 16.4937 22.125C16.7179 22.125 16.9105 22.0347 17.0713 21.854C17.2321 21.6733 17.3125 21.4512 17.3125 21.1875V15.5625ZM20.5625 15.5625C20.5625 15.3086 20.4821 15.0889 20.3213 14.9033C20.1605 14.7178 19.9679 14.625 19.7437 14.625C19.5194 14.625 19.3289 14.7178 19.1724 14.9033C19.0158 15.0889 18.9375 15.3086 18.9375 15.5625V21.1875C18.9375 21.4512 19.0158 21.6733 19.1724 21.854C19.3289 22.0347 19.5194 22.125 19.7437 22.125C19.9679 22.125 20.1605 22.0347 20.3213 21.854C20.4821 21.6733 20.5625 21.4512 20.5625 21.1875V15.5625Z" fill="#F26327"/>
</svg>
