<svg width="90" height="55" viewBox="0 0 90 55" fill="none" xmlns="http://www.w3.org/2000/svg">
<path d="M56.5368 43.2218H55.075L52.959 38.3157V43.2218H51.4805V35.6156H52.959L55.0583 40.4984L55.065 35.6156H56.5368V43.2218Z" fill="#414042"/>
<path d="M60.0195 35.6156H64.4184V36.8004H62.9365V42.0403H64.4184V43.2218H60.0195V42.0403H61.4647V36.8004H60.0195V35.6156Z" fill="#414042"/>
<path d="M71.6107 41.6332H69.3279L68.8773 43.2218H67.332L69.8218 35.6156H71.1535L73.5999 43.2218H72.0546L71.6107 41.6332ZM69.6883 40.3849H71.267L70.4893 37.5847L69.6883 40.3849Z" fill="#414042"/>
<path d="M81.2766 42.3339C81.1832 42.4474 81.053 42.5642 80.8895 42.6843C80.7259 42.8045 80.5323 42.9113 80.3054 43.0047C80.0818 43.1015 79.8281 43.1783 79.5511 43.2384C79.2741 43.2984 78.9737 43.3285 78.6533 43.3285C78.2228 43.3285 77.8323 43.2517 77.4818 43.0982C77.1347 42.9447 76.8344 42.7244 76.5874 42.434C76.3404 42.1437 76.1502 41.7899 76.0167 41.3727C75.8832 40.9522 75.8164 40.4782 75.8164 39.9442V38.9096C75.8164 38.3756 75.8865 37.9017 76.0267 37.4811C76.1668 37.0606 76.3638 36.7068 76.6107 36.4131C76.8611 36.1194 77.1514 35.8991 77.4885 35.7456C77.8256 35.5921 78.1894 35.5153 78.5832 35.5153C79.0104 35.5153 79.3842 35.5687 79.7046 35.6789C80.025 35.789 80.292 35.9425 80.5123 36.1461C80.7326 36.3497 80.9028 36.5967 81.0263 36.8904C81.1498 37.1841 81.2299 37.5112 81.2699 37.8783H79.8381C79.7881 37.4878 79.6713 37.1941 79.4844 36.9972C79.2975 36.8003 79.0104 36.7035 78.6199 36.7035C78.433 36.7035 78.2561 36.7502 78.0959 36.847C77.9357 36.9438 77.7956 37.084 77.6788 37.2675C77.5586 37.4511 77.4652 37.6814 77.3951 37.9551C77.325 38.2287 77.2916 38.5458 77.2916 38.9029V39.9476C77.2949 40.6585 77.4151 41.2025 77.6454 41.5796C77.879 41.9568 78.2361 42.147 78.7167 42.1503C78.8302 42.1503 78.9437 42.1403 79.0572 42.1236C79.1673 42.1069 79.2741 42.0836 79.3709 42.0502C79.4677 42.0168 79.5544 41.9835 79.6312 41.9434C79.7046 41.9034 79.7614 41.86 79.8014 41.8166L79.8081 40.4382H78.5498V39.3401H81.2699L81.2766 42.3339Z" fill="#414042"/>
<path d="M87.9584 41.6332H85.6755L85.225 43.2218H83.6797L86.1695 35.6156H87.5012L89.9476 43.2218H88.4023L87.9584 41.6332ZM86.036 40.3849H87.6146L86.837 37.5847L86.036 40.3849Z" fill="#414042"/>
<path d="M0.350546 48.7126L0.207031 48.5224C0.520759 48.2086 0.8178 47.9784 1.10149 47.8282C1.38518 47.678 1.60546 47.6046 1.769 47.6046C1.83575 47.6046 1.88581 47.6179 1.91919 47.6479C1.95256 47.678 1.96925 47.7147 1.96925 47.7681C1.96925 47.8315 1.94255 47.9517 1.89249 48.1319C1.81906 48.3989 1.769 48.6092 1.73896 48.7627C2.49658 47.9917 3.07731 47.6046 3.47781 47.6046C3.58128 47.6046 3.66138 47.6346 3.71478 47.6913C3.76818 47.7481 3.79488 47.8382 3.79488 47.9617C3.79488 48.0952 3.74815 48.3221 3.65137 48.6392C4.01182 48.262 4.32555 47.995 4.59255 47.8382C4.85955 47.6813 5.06648 47.6046 5.21667 47.6046C5.35017 47.6046 5.45363 47.6413 5.52706 47.718C5.60048 47.7948 5.6372 47.9116 5.6372 48.0685C5.6372 48.1619 5.62051 48.2754 5.59047 48.4056C5.56043 48.5357 5.44362 48.9296 5.24337 49.5937C4.99305 50.4148 4.86956 50.902 4.86956 51.0622C4.86956 51.169 4.91295 51.2224 5.00307 51.2224C5.06314 51.2224 5.12322 51.2024 5.17996 51.1657C5.36686 51.0322 5.5571 50.8687 5.75401 50.6717L5.91087 50.842C5.84412 50.8954 5.72063 51.0055 5.53707 51.1757C5.28342 51.4027 5.10987 51.5462 5.01308 51.6029C4.82951 51.7097 4.67599 51.7631 4.54916 51.7631C4.45571 51.7631 4.36893 51.7164 4.29885 51.6229C4.22542 51.5295 4.18871 51.3993 4.18871 51.2358C4.18871 51.0823 4.21207 50.9054 4.25546 50.7018C4.29885 50.4982 4.42901 50.0376 4.64595 49.3267C4.80615 48.7927 4.88959 48.4656 4.88959 48.3522C4.88959 48.2454 4.84286 48.192 4.74608 48.192C4.66598 48.192 4.56251 48.232 4.42901 48.3121C4.15533 48.4756 3.92838 48.6792 3.74482 48.9162C3.61799 49.0797 3.50785 49.3434 3.41106 49.7005C3.19746 50.4815 3.0406 51.119 2.93713 51.6129H2.26295L2.97051 48.7126C3.02057 48.5023 3.04727 48.3822 3.04727 48.3522C3.04727 48.3021 3.03392 48.262 3.01056 48.2353C2.98386 48.2086 2.94715 48.1953 2.90042 48.1953C2.81364 48.1953 2.68348 48.262 2.50325 48.3955C2.18953 48.6192 1.96591 48.8394 1.82907 49.0497C1.69223 49.26 1.57542 49.5804 1.47529 50.0109L1.1115 51.6163H0.430646L0.967989 49.3501C1.12485 48.6959 1.20495 48.3388 1.20495 48.2821C1.20495 48.2086 1.17825 48.1719 1.11818 48.1719C0.984676 48.1719 0.731024 48.3522 0.350546 48.7126Z" fill="black"/>
<path d="M9.76532 47.7447H10.4428L9.99561 49.4035C9.73194 50.368 9.60178 50.9154 9.60178 51.0489C9.60178 51.109 9.61513 51.1557 9.64517 51.1857C9.67521 51.2158 9.70524 51.2325 9.74196 51.2325C9.79536 51.2325 9.85877 51.2091 9.9322 51.1624C10.0357 51.089 10.2359 50.9054 10.5263 50.6117L10.6831 50.7886C10.0457 51.4494 9.57842 51.7798 9.27804 51.7798C9.17791 51.7798 9.09114 51.7398 9.01771 51.663C8.94762 51.5862 8.91091 51.4761 8.91091 51.3326C8.91091 51.1691 8.94429 50.9488 9.01438 50.6718C8.73402 50.9955 8.38358 51.2792 7.96973 51.5228C7.69271 51.683 7.45575 51.7665 7.25216 51.7665C7.14202 51.7665 7.05524 51.7298 6.99183 51.6563C6.92842 51.5829 6.89838 51.4661 6.89838 51.3092C6.89838 51.1857 6.91173 51.0522 6.94177 50.9087C6.98182 50.7085 7.08862 50.308 7.2555 49.7072C7.4691 48.9429 7.57256 48.4857 7.57256 48.3322C7.57256 48.242 7.54252 48.1987 7.47911 48.1987C7.42237 48.1987 7.34561 48.2287 7.24548 48.2854C7.14536 48.3422 6.97848 48.4857 6.74151 48.7093L6.53125 48.5424C6.95512 48.1619 7.27886 47.915 7.50247 47.7948C7.72609 47.6747 7.90631 47.6179 8.04315 47.6179C8.11992 47.6179 8.17999 47.6446 8.22672 47.7014C8.27344 47.7581 8.29681 47.8449 8.29681 47.9617C8.29681 48.182 8.18333 48.7193 7.95638 49.5737C7.75279 50.3447 7.65266 50.7819 7.65266 50.892C7.65266 50.9588 7.67269 51.0155 7.71607 51.0623C7.75946 51.109 7.80619 51.1323 7.85625 51.1323C8.03314 51.1323 8.28345 50.9855 8.61053 50.6918C8.93761 50.3981 9.15121 50.0643 9.25134 49.6905L9.76532 47.7447Z" fill="black"/>
<path d="M14.9902 50.6314L15.1237 50.8117C14.6999 51.1688 14.3861 51.4057 14.1792 51.5226C13.8955 51.6828 13.6686 51.7662 13.505 51.7662C13.4283 51.7662 13.3682 51.7462 13.3215 51.7028C13.2747 51.6594 13.2514 51.6127 13.2514 51.5593C13.2514 51.5059 13.2681 51.4157 13.3048 51.2923L13.4717 50.7115C13.0912 51.1187 12.7741 51.3991 12.5205 51.5426C12.2668 51.6861 12.0399 51.7629 11.8363 51.7629C11.6694 51.7629 11.5292 51.6894 11.4124 51.5426C11.2989 51.3957 11.2422 51.1788 11.2422 50.8951C11.2422 50.4445 11.3957 49.9272 11.7061 49.3431C12.0165 48.7591 12.3569 48.3252 12.7374 48.0448C13.1145 47.7645 13.4616 47.6243 13.7754 47.6243C13.8455 47.6243 13.9489 47.6343 14.0891 47.6577C14.2393 47.0402 14.3795 46.593 14.5163 46.3093C14.6531 46.0256 14.8267 45.782 15.0436 45.5784C15.2606 45.3715 15.5042 45.2146 15.7812 45.1011C16.0582 44.9877 16.3186 44.9343 16.5589 44.9343C16.6857 44.9343 16.7858 44.9676 16.8626 45.0344C16.9394 45.1011 16.9761 45.1846 16.9761 45.2847C16.9761 45.3815 16.9427 45.4616 16.8726 45.525C16.8025 45.5884 16.7057 45.6185 16.5856 45.6185C16.5055 45.6185 16.3586 45.6018 16.1417 45.5717C15.9247 45.5417 15.7779 45.525 15.6978 45.525C15.5877 45.525 15.4909 45.5584 15.4041 45.6251C15.3207 45.6919 15.2406 45.8387 15.1638 46.0623C15.1137 46.2059 14.9969 46.6598 14.8167 47.4241L14.1458 50.291C14.0657 50.6314 14.029 50.855 14.029 50.9652C14.029 51.0853 14.0758 51.1454 14.1659 51.1454C14.2226 51.1454 14.2894 51.1254 14.3661 51.082C14.4696 51.0219 14.6798 50.8717 14.9902 50.6314ZM13.9823 48.1783C13.7286 48.1216 13.5518 48.0916 13.445 48.0916C13.2314 48.0916 13.0244 48.175 12.8242 48.3419C12.6206 48.5088 12.427 48.8292 12.2368 49.3098C12.0499 49.787 11.9531 50.2042 11.9531 50.5613C11.9531 50.7215 11.9965 50.855 12.0832 50.9585C12.17 51.062 12.2701 51.112 12.3803 51.112C12.5138 51.112 12.664 51.052 12.8375 50.9351C13.0812 50.7616 13.2747 50.548 13.4183 50.2977C13.505 50.1408 13.6185 49.7503 13.7654 49.1329L13.9823 48.1783Z" fill="black"/>
<path d="M19.1517 47.5407L19.4654 47.474L19.1083 48.6755C18.9648 49.1528 18.8313 49.7035 18.7044 50.3276C18.6343 50.6647 18.601 50.885 18.601 50.9817C18.601 51.0785 18.641 51.1286 18.7211 51.1286C18.7712 51.1286 18.8513 51.0952 18.9648 51.0285C19.1617 50.9117 19.3486 50.7648 19.5288 50.5913L19.6823 50.7748C19.3219 51.1052 19.0916 51.3021 18.9881 51.3722C18.7845 51.5124 18.591 51.6159 18.4074 51.6793C18.2872 51.7227 18.1704 51.746 18.057 51.746C17.9735 51.746 17.9134 51.726 17.8734 51.6893C17.8333 51.6526 17.81 51.5958 17.81 51.5224C17.81 51.4757 17.8233 51.4089 17.8467 51.3288L18.0369 50.6847C17.7633 51.0118 17.4395 51.2921 17.0624 51.5258C16.8321 51.6726 16.6185 51.7427 16.4249 51.7427C16.2413 51.7427 16.1012 51.6793 16.001 51.5491C15.8675 51.3756 15.8008 51.1453 15.8008 50.8649C15.8008 50.5278 15.8909 50.1574 16.0678 49.7435C16.248 49.333 16.485 48.9592 16.7887 48.6221C17.0891 48.285 17.4061 48.038 17.7399 47.8812C17.9969 47.761 18.324 47.7009 18.7278 47.7009C18.8279 47.7009 18.9314 47.7076 19.0348 47.721L19.1517 47.5407ZM18.5609 48.2683C18.3907 48.235 18.2472 48.2149 18.1304 48.2149C17.8467 48.2149 17.5964 48.295 17.3861 48.4486C17.1725 48.6054 16.9756 48.8858 16.7954 49.293C16.6118 49.7001 16.5217 50.1073 16.5217 50.5112C16.5217 50.7248 16.5584 50.8816 16.6318 50.9751C16.7053 51.0685 16.7987 51.1186 16.9155 51.1186C17.1325 51.1186 17.3694 51.0018 17.6197 50.7648C17.8701 50.5278 18.0536 50.1907 18.1704 49.7469L18.5609 48.2683Z" fill="black"/>
<path d="M24.1106 50.6082L24.2341 50.7851C23.9437 51.1088 23.6434 51.3658 23.3363 51.556C23.126 51.6862 22.9558 51.7496 22.819 51.7496C22.7088 51.7496 22.6187 51.7062 22.552 51.6161C22.4852 51.526 22.4485 51.3892 22.4485 51.2023C22.4485 51.0754 22.4752 50.8919 22.5286 50.6482C22.582 50.4046 22.7289 49.8873 22.9725 49.0896C23.0793 48.6958 23.1327 48.4688 23.1327 48.4021C23.1327 48.3019 23.0793 48.2485 22.9692 48.2485C22.8357 48.2485 22.6688 48.3153 22.4685 48.4488C22.1882 48.6324 21.9412 48.866 21.7243 49.1497C21.5874 49.3299 21.4773 49.6002 21.3939 49.9574L21.0201 51.6161H20.3125C20.466 51.0621 20.5828 50.6115 20.6629 50.2611L21.3605 47.2172C21.4873 46.6532 21.6542 46.2227 21.8611 45.9189C22.068 45.6152 22.3384 45.3716 22.6721 45.1914C23.0059 45.0111 23.3363 44.921 23.6634 44.921C23.8002 44.921 23.907 44.9544 23.9871 45.0211C24.0672 45.0879 24.1073 45.1747 24.1073 45.2748C24.1073 45.3616 24.0672 45.4383 23.9905 45.5051C23.9137 45.5718 23.8069 45.6019 23.6734 45.6019C23.5966 45.6019 23.4998 45.5952 23.3797 45.5752C23.106 45.5351 22.9191 45.5151 22.8123 45.5151C22.6655 45.5151 22.5486 45.5752 22.4552 45.692C22.3617 45.8088 22.2683 46.0858 22.1715 46.523L21.6408 48.866C22.018 48.4722 22.4285 48.1384 22.8724 47.8647C23.1327 47.7045 23.343 47.6244 23.4998 47.6244C23.6233 47.6244 23.7201 47.6611 23.7902 47.7346C23.8603 47.808 23.8937 47.9081 23.8937 48.0383C23.8937 48.1451 23.8803 48.2519 23.857 48.362C23.8169 48.5489 23.7201 48.8893 23.5666 49.3766C23.3597 50.0541 23.2395 50.4747 23.2028 50.6416C23.1661 50.8084 23.1494 50.9519 23.1494 51.0821C23.1494 51.1322 23.1594 51.1722 23.1761 51.1956C23.1928 51.2223 23.2195 51.2323 23.2529 51.2323C23.3296 51.2323 23.4698 51.1422 23.6801 50.962C23.8002 50.8618 23.9404 50.745 24.1106 50.6082Z" fill="black"/>
<path d="M30.9707 50.6314L31.1042 50.8117C30.6803 51.1688 30.3666 51.4057 30.1597 51.5226C29.876 51.6828 29.649 51.7662 29.4855 51.7662C29.4087 51.7662 29.3487 51.7462 29.3019 51.7028C29.2552 51.6594 29.2319 51.6127 29.2319 51.5593C29.2319 51.5059 29.2485 51.4157 29.2853 51.2923L29.4521 50.7115C29.0716 51.1187 28.7546 51.3991 28.5009 51.5426C28.2473 51.6861 28.0203 51.7629 27.8167 51.7629C27.6499 51.7629 27.5097 51.6894 27.3929 51.5426C27.2794 51.3957 27.2227 51.1788 27.2227 50.8951C27.2227 50.4445 27.3762 49.9272 27.6866 49.3431C27.997 48.7591 28.3374 48.3252 28.7179 48.0448C29.095 47.7645 29.4421 47.6243 29.7558 47.6243C29.8259 47.6243 29.9294 47.6343 30.0696 47.6577C30.2198 47.0402 30.3599 46.593 30.4968 46.3093C30.6336 46.0256 30.8072 45.782 31.0241 45.5784C31.241 45.3715 31.4847 45.2146 31.7617 45.1011C32.0387 44.9877 32.299 44.9343 32.5393 44.9343C32.6662 44.9343 32.7663 44.9676 32.8431 45.0344C32.9198 45.1011 32.9565 45.1846 32.9565 45.2847C32.9565 45.3815 32.9232 45.4616 32.8531 45.525C32.783 45.5884 32.6862 45.6185 32.566 45.6185C32.4859 45.6185 32.3391 45.6018 32.1222 45.5717C31.9052 45.5417 31.7584 45.525 31.6783 45.525C31.5681 45.525 31.4713 45.5584 31.3846 45.6251C31.3011 45.6919 31.221 45.8387 31.1443 46.0623C31.0942 46.2059 30.9774 46.6598 30.7972 47.4241L30.1263 50.291C30.0462 50.6314 30.0095 50.855 30.0095 50.9652C30.0095 51.0853 30.0562 51.1454 30.1463 51.1454C30.2031 51.1454 30.2698 51.1254 30.3466 51.082C30.4501 51.0219 30.6603 50.8717 30.9707 50.6314ZM29.9628 48.1783C29.7091 48.1216 29.5322 48.0916 29.4254 48.0916C29.2118 48.0916 29.0049 48.175 28.8046 48.3419C28.6011 48.5088 28.4075 48.8292 28.2172 49.3098C28.0303 49.787 27.9335 50.2042 27.9335 50.5613C27.9335 50.7215 27.9769 50.855 28.0637 50.9585C28.1505 51.062 28.2506 51.112 28.3608 51.112C28.4943 51.112 28.6444 51.052 28.818 50.9351C29.0616 50.7616 29.2552 50.548 29.3987 50.2977C29.4855 50.1408 29.599 49.7503 29.7458 49.1329L29.9628 48.1783Z" fill="black"/>
<path d="M34.3814 50.4248L34.5383 50.635C33.764 51.3726 33.0965 51.7431 32.5424 51.7431C32.3188 51.7431 32.1453 51.6663 32.0285 51.5162C31.9083 51.3626 31.8516 51.119 31.8516 50.7852C31.8516 50.1077 32.0585 49.4335 32.469 48.7627C32.9296 47.9984 33.4836 47.6179 34.1278 47.6179C34.3514 47.6179 34.5249 47.6747 34.6417 47.7848C34.7619 47.8983 34.8186 48.0518 34.8186 48.2487C34.8186 48.4556 34.7485 48.6559 34.605 48.8561C34.4615 49.0564 34.2079 49.2633 33.8407 49.4769C33.6572 49.5804 33.2633 49.7706 32.6626 50.041C32.6359 50.2112 32.6192 50.3747 32.6192 50.5316C32.6192 50.7552 32.6559 50.9121 32.726 51.0022C32.7961 51.0923 32.8995 51.1357 33.0364 51.1357C33.1665 51.1357 33.3101 51.099 33.4636 51.0255C33.6739 50.9254 33.9776 50.7252 34.3814 50.4248ZM32.7193 49.7339C33.23 49.507 33.6104 49.26 33.8674 48.9963C34.041 48.8128 34.1278 48.6292 34.1278 48.449C34.1278 48.3121 34.091 48.2053 34.021 48.1252C33.9509 48.0451 33.8574 48.0051 33.7439 48.0051C33.6271 48.0051 33.5137 48.0485 33.4035 48.1386C33.2533 48.2554 33.1298 48.4323 33.0297 48.6692C32.8829 49.0197 32.7794 49.3735 32.7193 49.7339Z" fill="black"/>
<path d="M35.6446 48.7392L35.4844 48.5723C35.8882 48.1851 36.212 47.9248 36.4556 47.798C36.6959 47.6711 36.9028 47.6077 37.073 47.6077C37.1398 47.6077 37.1932 47.6211 37.2299 47.6511C37.2666 47.6812 37.2866 47.7145 37.2866 47.7512C37.2866 47.7813 37.28 47.8313 37.2633 47.9048L37.0497 48.8593C37.3734 48.5022 37.7773 48.1684 38.2645 47.858C38.5249 47.6978 38.7385 47.6144 38.9053 47.6144C39.0288 47.6144 39.1256 47.6545 39.1957 47.7346C39.2658 47.8147 39.2992 47.9281 39.2992 48.075C39.2992 48.1718 39.2858 48.2852 39.2558 48.4087C39.2057 48.6157 39.0722 49.0629 38.8586 49.7538C38.655 50.4012 38.5549 50.8284 38.5549 51.042C38.5549 51.1055 38.5649 51.1555 38.5816 51.1889C38.6016 51.2223 38.6283 51.239 38.6617 51.239C38.7518 51.239 38.8987 51.1488 39.0922 50.972C39.2324 50.8451 39.3693 50.7283 39.5094 50.6215L39.6296 50.7917C39.3392 51.1121 39.0355 51.3725 38.7218 51.566C38.5215 51.6929 38.358 51.7563 38.2278 51.7563C38.1077 51.7563 38.0142 51.7129 37.9475 51.6261C37.8807 51.5393 37.8473 51.3992 37.8473 51.2023C37.8473 50.9219 38.0242 50.2177 38.3747 49.0996C38.4815 48.6991 38.5349 48.4688 38.5349 48.4021C38.5349 48.3053 38.4748 48.2552 38.358 48.2552C38.2312 48.2552 38.0676 48.322 37.8674 48.4555C37.5703 48.6524 37.32 48.8827 37.1231 49.1497C36.9963 49.3199 36.8895 49.5936 36.806 49.9674L36.4222 51.6261H35.7147C35.8482 51.1522 35.9616 50.6949 36.0618 50.2611L36.4856 48.4521C36.5023 48.3787 36.509 48.3253 36.509 48.2953C36.509 48.2085 36.479 48.1684 36.4122 48.1684C36.3621 48.1684 36.2887 48.2018 36.1953 48.2686C35.9984 48.3887 35.8148 48.5489 35.6446 48.7392Z" fill="black"/>
<path d="M43.4716 47.5876L43.8521 47.5009C43.6218 48.2418 43.4116 48.9827 43.218 49.727C43.0778 50.2577 42.9844 50.7016 42.9276 51.0553C42.9009 51.2322 42.8842 51.4592 42.8809 51.7295C42.8742 52.1868 42.8242 52.5539 42.7274 52.8309C42.5939 53.2214 42.3469 53.5351 41.9831 53.7721C41.6193 54.009 41.1888 54.1292 40.6915 54.1292C40.2643 54.1292 39.9272 54.0291 39.6835 53.8288C39.4366 53.6286 39.3164 53.3983 39.3164 53.1379C39.3164 52.881 39.4132 52.644 39.6101 52.4204C39.757 52.2535 40.0607 52.0499 40.5246 51.813C40.7582 51.6895 40.9785 51.5626 41.1854 51.4325C40.9485 51.5526 40.7682 51.6127 40.6381 51.6127C40.5213 51.6127 40.4145 51.5593 40.3243 51.4492C40.2342 51.339 40.1875 51.1955 40.1875 51.0153C40.1875 50.4312 40.3611 49.8538 40.7082 49.2798C41.0553 48.7057 41.4725 48.2752 41.9597 47.9848C42.2601 47.8079 42.6373 47.7178 43.0912 47.7178C43.1813 47.7178 43.2881 47.7211 43.4182 47.7278L43.4716 47.5876ZM42.3002 50.8784C42.0832 51.072 41.6694 51.3791 41.0553 51.8029C40.5146 52.1701 40.1808 52.4337 40.0573 52.5973C39.9339 52.7608 39.8704 52.9344 39.8704 53.1213C39.8704 53.3015 39.9505 53.465 40.1107 53.6085C40.2709 53.7521 40.4645 53.8255 40.6948 53.8255C40.9117 53.8255 41.1187 53.7721 41.3223 53.6653C41.5259 53.5585 41.7027 53.405 41.8529 53.2047C42.0031 53.0044 42.1066 52.7775 42.1633 52.5238C42.2201 52.2702 42.2501 51.9364 42.2534 51.5159C42.2534 51.4225 42.2701 51.2122 42.3002 50.8784ZM42.9443 48.2919C42.7908 48.2652 42.6573 48.2485 42.5405 48.2485C42.2401 48.2485 41.9831 48.3286 41.7662 48.4854C41.5526 48.6423 41.369 48.9093 41.2155 49.2831C41.0052 49.8104 40.8984 50.2577 40.8984 50.6181C40.8984 50.7683 40.9385 50.8918 41.0252 50.9919C41.1087 51.092 41.2021 51.1454 41.3089 51.1454C41.4357 51.1454 41.5926 51.0854 41.7795 50.9619C41.9664 50.8384 42.1199 50.6882 42.2367 50.5046C42.3536 50.3211 42.4771 50.004 42.6005 49.5534L42.9443 48.2919Z" fill="black"/>
<path d="M47.7024 47.5407L48.0162 47.474L47.6591 48.6755C47.5155 49.1528 47.382 49.7035 47.2552 50.3276C47.1851 50.6647 47.1518 50.885 47.1518 50.9817C47.1518 51.0785 47.1918 51.1286 47.2719 51.1286C47.322 51.1286 47.4021 51.0952 47.5155 51.0285C47.7125 50.9117 47.8994 50.7648 48.0796 50.5913L48.2331 50.7748C47.8727 51.1052 47.6424 51.3021 47.5389 51.3722C47.3353 51.5124 47.1417 51.6159 46.9582 51.6793C46.838 51.7227 46.7212 51.746 46.6077 51.746C46.5243 51.746 46.4642 51.726 46.4242 51.6893C46.3841 51.6526 46.3608 51.5958 46.3608 51.5224C46.3608 51.4757 46.3741 51.4089 46.3975 51.3288L46.5877 50.6847C46.314 51.0118 45.9903 51.2921 45.6131 51.5258C45.3829 51.6726 45.1693 51.7427 44.9757 51.7427C44.7921 51.7427 44.6519 51.6793 44.5518 51.5491C44.4183 51.3756 44.3516 51.1453 44.3516 50.8649C44.3516 50.5278 44.4417 50.1574 44.6186 49.7435C44.7988 49.333 45.0358 48.9592 45.3395 48.6221C45.6398 48.285 45.9569 48.038 46.2907 47.8812C46.5477 47.761 46.8747 47.7009 47.2786 47.7009C47.3787 47.7009 47.4822 47.7076 47.5856 47.721L47.7024 47.5407ZM47.115 48.2683C46.9448 48.235 46.8013 48.2149 46.6845 48.2149C46.4008 48.2149 46.1505 48.295 45.9402 48.4486C45.7266 48.6054 45.5297 48.8858 45.3495 49.293C45.1659 49.7001 45.0758 50.1073 45.0758 50.5112C45.0758 50.7248 45.1125 50.8816 45.1859 50.9751C45.2594 51.0685 45.3528 51.1186 45.4696 51.1186C45.6866 51.1186 45.9235 51.0018 46.1739 50.7648C46.4242 50.5278 46.6077 50.1907 46.7245 49.7469L47.115 48.2683Z" fill="black"/>
<path d="M48.9961 48.7392L48.8359 48.5723C49.2398 48.1851 49.5635 47.9248 49.8072 47.798C50.0475 47.6711 50.2544 47.6077 50.4246 47.6077C50.4914 47.6077 50.5448 47.6211 50.5815 47.6511C50.6182 47.6812 50.6382 47.7145 50.6382 47.7512C50.6382 47.7813 50.6315 47.8313 50.6148 47.9048L50.4012 48.8593C50.725 48.5022 51.1288 48.1684 51.6161 47.858C51.8764 47.6978 52.09 47.6144 52.2569 47.6144C52.3804 47.6144 52.4772 47.6545 52.5473 47.7346C52.6174 47.8147 52.6507 47.9281 52.6507 48.075C52.6507 48.1718 52.6374 48.2852 52.6074 48.4087C52.5573 48.6157 52.4238 49.0629 52.2102 49.7538C52.0066 50.4012 51.9065 50.8284 51.9065 51.042C51.9065 51.1055 51.9165 51.1555 51.9332 51.1889C51.9532 51.2223 51.9799 51.239 52.0133 51.239C52.1034 51.239 52.2502 51.1488 52.4438 50.972C52.584 50.8451 52.7208 50.7283 52.861 50.6215L52.9812 50.7917C52.6908 51.1121 52.3871 51.3725 52.0733 51.566C51.8731 51.6929 51.7096 51.7563 51.5794 51.7563C51.4592 51.7563 51.3658 51.7129 51.299 51.6261C51.2323 51.5393 51.1989 51.3992 51.1989 51.2023C51.1989 50.9219 51.3758 50.2177 51.7262 49.0996C51.833 48.6991 51.8864 48.4688 51.8864 48.4021C51.8864 48.3053 51.8264 48.2552 51.7096 48.2552C51.5827 48.2552 51.4192 48.322 51.2189 48.4555C50.9219 48.6524 50.6716 48.8827 50.4747 49.1497C50.3478 49.3199 50.241 49.5936 50.1576 49.9674L49.7738 51.6261H49.0662C49.1997 51.1522 49.3132 50.6949 49.4133 50.2611L49.8372 48.4521C49.8539 48.3787 49.8606 48.3253 49.8606 48.2953C49.8606 48.2085 49.8305 48.1684 49.7638 48.1684C49.7137 48.1684 49.6403 48.2018 49.5468 48.2686C49.3499 48.3887 49.1664 48.5489 48.9961 48.7392Z" fill="black"/>
<path d="M57.3954 46.89L58.1497 46.5997L57.8093 47.928H58.7938L58.7171 48.2651H57.7325L57.3187 49.8571C57.1885 50.3344 57.1217 50.6681 57.1217 50.855C57.1217 50.9418 57.1384 51.0019 57.1751 51.0386C57.2119 51.0753 57.2619 51.0953 57.3253 51.0953C57.4221 51.0953 57.5723 51.0353 57.7759 50.9184C58.0429 50.7649 58.2966 50.588 58.5369 50.3911L58.7171 50.6081C58.0229 51.1287 57.559 51.4491 57.3253 51.5659C57.0917 51.6827 56.9015 51.7428 56.7613 51.7428C56.6445 51.7428 56.551 51.6994 56.4843 51.616C56.4175 51.5292 56.3808 51.3924 56.3808 51.1988C56.3808 50.9718 56.4409 50.6214 56.561 50.1541L57.045 48.2651H56.2773L56.3641 47.928H57.1351L57.3954 46.89Z" fill="black"/>
<path d="M61.9634 50.4248L62.1203 50.635C61.346 51.3726 60.6785 51.7431 60.1245 51.7431C59.9009 51.7431 59.7273 51.6663 59.6105 51.5162C59.4903 51.3626 59.4336 51.119 59.4336 50.7852C59.4336 50.1077 59.6405 49.4335 60.051 48.7627C60.5116 47.9984 61.0656 47.6179 61.7098 47.6179C61.9334 47.6179 62.107 47.6747 62.2238 47.7848C62.3439 47.8983 62.4007 48.0518 62.4007 48.2487C62.4007 48.4556 62.3306 48.6559 62.1871 48.8561C62.0435 49.0564 61.7899 49.2633 61.4228 49.4769C61.2392 49.5804 60.8454 49.7706 60.2446 50.041C60.2179 50.2112 60.2012 50.3747 60.2012 50.5316C60.2012 50.7552 60.2379 50.9121 60.308 51.0022C60.3781 51.0923 60.4816 51.1357 60.6184 51.1357C60.7486 51.1357 60.8921 51.099 61.0456 51.0255C61.2559 50.9254 61.5629 50.7252 61.9634 50.4248ZM60.3014 49.7339C60.812 49.507 61.1925 49.26 61.4495 48.9963C61.623 48.8128 61.7098 48.6292 61.7098 48.449C61.7098 48.3121 61.6731 48.2053 61.603 48.1252C61.5329 48.0451 61.4395 48.0051 61.326 48.0051C61.2092 48.0051 61.0957 48.0485 60.9855 48.1386C60.8354 48.2554 60.7119 48.4323 60.6117 48.6692C60.4649 49.0197 60.3614 49.3735 60.3014 49.7339Z" fill="black"/>
<path d="M63.8208 51.6162H63.1133L63.7341 49.0296C64.0344 47.7446 64.2314 46.9536 64.3248 46.6566C64.4183 46.3596 64.5317 46.1126 64.6619 45.919C64.7921 45.7254 64.9589 45.5519 65.1558 45.4017C65.3528 45.2482 65.5664 45.1347 65.7967 45.0512C66.027 44.9711 66.2272 44.9311 66.4008 44.9311C66.5643 44.9311 66.6878 44.9611 66.7679 45.0245C66.848 45.088 66.888 45.1714 66.888 45.2749C66.888 45.365 66.8513 45.4384 66.7779 45.5018C66.7045 45.5652 66.6144 45.5953 66.5042 45.5953C66.364 45.5953 66.1538 45.5719 65.8734 45.5252C65.7833 45.5051 65.6999 45.4951 65.6331 45.4951C65.5363 45.4951 65.4429 45.5318 65.3561 45.5986C65.2693 45.6687 65.1926 45.7922 65.1225 45.9724C65.0557 46.1526 64.9589 46.5231 64.8354 47.0905L64.495 48.6057C64.7987 48.262 65.1158 47.995 65.4395 47.808C65.6865 47.6679 65.9235 47.5978 66.1471 47.5978C66.3073 47.5978 66.4408 47.6579 66.5476 47.7747C66.6577 47.8948 66.7111 48.0417 66.7111 48.2219C66.7111 48.559 66.5343 48.8627 66.1838 49.1297C65.8334 49.3967 65.296 49.5369 64.5751 49.5569C64.8188 49.6637 65.0123 49.7839 65.1592 49.9107C65.306 50.0375 65.4496 50.2177 65.5897 50.4447C65.7299 50.6716 65.9101 51.0521 66.1337 51.5828C66.3974 52.2169 66.6411 52.6375 66.8647 52.8477C67.0849 53.058 67.3286 53.1614 67.5956 53.1614C67.7491 53.1614 67.8793 53.1281 67.9794 53.058C68.0795 52.9879 68.1329 52.9211 68.1329 52.8511C68.1329 52.8077 68.1162 52.7476 68.0862 52.6708C68.0528 52.5874 68.0328 52.5173 68.0328 52.4606C68.0328 52.3871 68.0628 52.3237 68.1196 52.267C68.1763 52.2103 68.2431 52.1802 68.3198 52.1802C68.4099 52.1802 68.4834 52.2169 68.5468 52.287C68.6102 52.3571 68.6402 52.4539 68.6402 52.5707C68.6402 52.7977 68.5368 53.0012 68.3265 53.1781C68.1162 53.355 67.8459 53.4451 67.5088 53.4451C67.165 53.4451 66.8547 53.3584 66.581 53.1848C66.3073 53.0113 66.0536 52.7309 65.8167 52.3471C65.6798 52.1235 65.4429 51.6195 65.1058 50.8319C64.9489 50.458 64.8054 50.1777 64.6786 49.9908C64.5818 49.8439 64.445 49.7004 64.2747 49.5569L63.8208 51.6162ZM64.3281 49.3633C64.752 49.3667 65.0991 49.3266 65.3594 49.2398C65.6231 49.1531 65.81 49.0396 65.9235 48.8994C66.037 48.7592 66.0904 48.6024 66.0904 48.4355C66.0904 48.3153 66.057 48.2186 65.9936 48.1451C65.9302 48.0717 65.8501 48.035 65.7599 48.035C65.4629 48.035 65.009 48.3654 64.3949 49.0296L64.3281 49.3633Z" fill="black"/>
<path d="M67.8047 48.7392L67.6445 48.5723C68.0484 48.1851 68.3721 47.9248 68.6158 47.798C68.8561 47.6711 69.063 47.6077 69.2332 47.6077C69.2999 47.6077 69.3533 47.6211 69.3901 47.6511C69.4268 47.6812 69.4468 47.7145 69.4468 47.7512C69.4468 47.7813 69.4401 47.8313 69.4234 47.9048L69.2098 48.8593C69.5336 48.5022 69.9374 48.1684 70.4247 47.858C70.685 47.6978 70.8986 47.6144 71.0655 47.6144C71.189 47.6144 71.2858 47.6545 71.3559 47.7346C71.426 47.8147 71.4593 47.9281 71.4593 48.075C71.4593 48.1718 71.446 48.2852 71.4159 48.4087C71.3659 48.6157 71.2324 49.0629 71.0188 49.7538C70.8152 50.4012 70.7151 50.8284 70.7151 51.042C70.7151 51.1055 70.7251 51.1555 70.7418 51.1889C70.7618 51.2223 70.7885 51.239 70.8219 51.239C70.912 51.239 71.0588 51.1488 71.2524 50.972C71.3926 50.8451 71.5294 50.7283 71.6696 50.6215L71.7897 50.7917C71.4994 51.1121 71.1957 51.3725 70.8819 51.566C70.6817 51.6929 70.5181 51.7563 70.388 51.7563C70.2678 51.7563 70.1744 51.7129 70.1076 51.6261C70.0409 51.5393 70.0075 51.3992 70.0075 51.2023C70.0075 50.9219 70.1844 50.2177 70.5348 49.0996C70.6416 48.6991 70.695 48.4688 70.695 48.4021C70.695 48.3053 70.635 48.2552 70.5181 48.2552C70.3913 48.2552 70.2278 48.322 70.0275 48.4555C69.7305 48.6524 69.4802 48.8827 69.2833 49.1497C69.1564 49.3199 69.0496 49.5936 68.9662 49.9674L68.5824 51.6261H67.8748C68.0083 51.1522 68.1218 50.6949 68.2219 50.2611L68.6458 48.4521C68.6625 48.3787 68.6692 48.3253 68.6692 48.2953C68.6692 48.2085 68.6391 48.1684 68.5724 48.1684C68.5223 48.1684 68.4489 48.2018 68.3554 48.2686C68.1585 48.3887 67.9749 48.5489 67.8047 48.7392Z" fill="black"/>
<path d="M74.7932 47.6212C75.1036 47.6212 75.3606 47.7446 75.5675 47.9916C75.7745 48.2386 75.8746 48.5824 75.8746 49.0229C75.8746 49.7271 75.6276 50.3579 75.1337 50.9153C74.6397 51.4727 74.119 51.753 73.565 51.753C73.2246 51.753 72.9542 51.6429 72.744 51.4193C72.5371 51.199 72.4336 50.8953 72.4336 50.5115C72.4336 49.8473 72.6238 49.2332 73.0043 48.6691C73.4849 47.9716 74.079 47.6212 74.7932 47.6212ZM74.3894 47.9783C74.119 47.9783 73.8587 48.1718 73.6084 48.5557C73.3581 48.9395 73.2313 49.4702 73.2313 50.1477C73.2313 50.5582 73.308 50.8853 73.4649 51.1222C73.5784 51.2958 73.7319 51.3826 73.9221 51.3826C74.1891 51.3826 74.4294 51.219 74.6497 50.8886C74.9267 50.4614 75.0669 49.9307 75.0669 49.2966C75.0669 48.8227 75.0035 48.4822 74.8733 48.282C74.7432 48.0784 74.583 47.9783 74.3894 47.9783Z" fill="black"/>
<path d="M78.6006 50.4716L78.7608 50.6418C78.5138 50.9188 78.2234 51.1758 77.8863 51.4027C77.5492 51.633 77.2722 51.7465 77.0519 51.7465C76.9551 51.7465 76.8717 51.7098 76.8083 51.6364C76.7449 51.5629 76.7148 51.4595 76.7148 51.3293C76.7148 51.0757 76.8116 50.5517 77.0085 49.754L77.5225 47.668C77.7094 46.9137 77.8663 46.4098 77.9931 46.1528C78.19 45.7656 78.4671 45.4653 78.8242 45.2483C79.1813 45.0314 79.5618 44.9279 79.9589 44.9279C80.0958 44.9279 80.2026 44.9613 80.2793 45.0247C80.3561 45.0915 80.3961 45.1682 80.3961 45.2617C80.3961 45.3651 80.3594 45.4486 80.2827 45.512C80.2059 45.5787 80.0958 45.6088 79.9523 45.6088C79.8588 45.6088 79.722 45.5921 79.5484 45.562C79.3982 45.5353 79.2547 45.5253 79.1279 45.5253C78.9977 45.5253 78.9009 45.552 78.8342 45.6054C78.7441 45.6822 78.6606 45.8391 78.5872 46.0827C78.5138 46.3263 78.3936 46.8036 78.2268 47.5178L77.7528 49.507C77.5192 50.5049 77.4024 51.0256 77.4024 51.069C77.4024 51.1691 77.4391 51.2225 77.5125 51.2225C77.5826 51.2225 77.6827 51.1825 77.8162 51.099C78.0766 50.9388 78.3402 50.7286 78.6006 50.4716Z" fill="black"/>
<path d="M81.6174 47.6212C81.9278 47.6212 82.1848 47.7446 82.3918 47.9916C82.5987 48.2386 82.6988 48.5824 82.6988 49.0229C82.6988 49.7271 82.4518 50.3579 81.9579 50.9153C81.4639 51.4727 80.9433 51.753 80.3892 51.753C80.0488 51.753 79.7785 51.6429 79.5682 51.4193C79.3613 51.199 79.2578 50.8953 79.2578 50.5115C79.2578 49.8473 79.4481 49.2332 79.8285 48.6691C80.3125 47.9716 80.9066 47.6212 81.6174 47.6212ZM81.2136 47.9783C80.9433 47.9783 80.6829 48.1718 80.4326 48.5557C80.1823 48.9395 80.0555 49.4702 80.0555 50.1477C80.0555 50.5582 80.1323 50.8853 80.2891 51.1222C80.4026 51.2958 80.5561 51.3826 80.7464 51.3826C81.0134 51.3826 81.2537 51.219 81.4739 50.8886C81.7509 50.4614 81.8911 49.9307 81.8911 49.2966C81.8911 48.8227 81.8277 48.4822 81.6976 48.282C81.5674 48.0784 81.4072 47.9783 81.2136 47.9783Z" fill="black"/>
<path d="M86.6474 47.5876L87.0279 47.5009C86.7976 48.2418 86.5873 48.9827 86.3938 49.727C86.2536 50.2577 86.1601 50.7016 86.1034 51.0553C86.0767 51.2322 86.06 51.4592 86.0567 51.7295C86.05 52.1868 85.9999 52.5539 85.9031 52.8309C85.7696 53.2214 85.5227 53.5351 85.1589 53.7721C84.7951 54.009 84.3645 54.1292 83.8672 54.1292C83.44 54.1292 83.103 54.0291 82.8593 53.8288C82.6123 53.6286 82.4922 53.3983 82.4922 53.1379C82.4922 52.881 82.589 52.644 82.7859 52.4204C82.9327 52.2535 83.2365 52.0499 83.7004 51.813C83.934 51.6895 84.1543 51.5626 84.3612 51.4325C84.1242 51.5526 83.944 51.6127 83.8139 51.6127C83.697 51.6127 83.5902 51.5593 83.5001 51.4492C83.41 51.339 83.3633 51.1955 83.3633 51.0153C83.3633 50.4312 83.5368 49.8538 83.8839 49.2798C84.231 48.7057 84.6482 48.2752 85.1355 47.9848C85.4359 47.8079 85.813 47.7178 86.2669 47.7178C86.357 47.7178 86.4639 47.7211 86.594 47.7278L86.6474 47.5876ZM85.4726 50.8784C85.2557 51.072 84.8418 51.3791 84.2277 51.8029C83.687 52.1701 83.3533 52.4337 83.2298 52.5973C83.1063 52.7608 83.0429 52.9344 83.0429 53.1213C83.0429 53.3015 83.123 53.465 83.2832 53.6085C83.4434 53.7521 83.637 53.8255 83.8672 53.8255C84.0842 53.8255 84.2911 53.7721 84.4947 53.6653C84.6983 53.5585 84.8752 53.405 85.0254 53.2047C85.1756 53.0044 85.279 52.7775 85.3358 52.5238C85.3925 52.2702 85.4225 51.9364 85.4259 51.5159C85.4292 51.4225 85.4459 51.2122 85.4726 50.8784ZM86.1168 48.2919C85.9632 48.2652 85.8297 48.2485 85.7129 48.2485C85.4125 48.2485 85.1555 48.3286 84.9386 48.4854C84.725 48.6423 84.5414 48.9093 84.3879 49.2831C84.1776 49.8104 84.0708 50.2577 84.0708 50.6181C84.0708 50.7683 84.1109 50.8918 84.1977 50.9919C84.2811 51.092 84.3746 51.1454 84.4814 51.1454C84.6082 51.1454 84.765 51.0854 84.9519 50.9619C85.1388 50.8384 85.2924 50.6882 85.4092 50.5046C85.526 50.3211 85.6495 50.004 85.773 49.5534L86.1168 48.2919Z" fill="black"/>
<path d="M87.7923 48.7224L87.582 48.5622C87.8991 48.2151 88.1861 47.9648 88.4465 47.818C88.7068 47.6711 88.9304 47.5977 89.114 47.5977C89.2141 47.5977 89.2942 47.6211 89.3476 47.6644C89.401 47.7078 89.4277 47.7679 89.4277 47.8447C89.4277 47.9381 89.3242 48.3253 89.1206 49.0128C88.7869 50.1376 88.62 50.8151 88.62 51.0454C88.62 51.0888 88.63 51.1255 88.6534 51.1555C88.6767 51.1855 88.7001 51.1989 88.7235 51.1989C88.8236 51.1989 89.0839 51.002 89.5011 50.6115L89.688 50.7917C89.2541 51.1989 88.9371 51.4626 88.7368 51.576C88.5366 51.6895 88.373 51.7463 88.2462 51.7463C88.1361 51.7463 88.046 51.7129 87.9825 51.6428C87.9191 51.5727 87.8857 51.4759 87.8857 51.3524C87.8857 50.9553 88.1227 49.9907 88.5966 48.4521C88.62 48.3787 88.63 48.3153 88.63 48.2585C88.63 48.1951 88.6033 48.1651 88.5432 48.1651C88.4798 48.1651 88.4064 48.1918 88.3263 48.2418C88.2529 48.2886 88.0727 48.4521 87.7923 48.7224ZM89.658 45.5785C89.7548 45.5785 89.8382 45.6119 89.9016 45.6753C89.965 45.7387 89.9984 45.8221 89.9984 45.9256C89.9984 46.0658 89.9483 46.1859 89.8549 46.2927C89.7581 46.3995 89.6513 46.4529 89.5311 46.4529C89.4377 46.4529 89.3576 46.4196 89.2942 46.3528C89.2308 46.2861 89.1974 46.1993 89.1974 46.0925C89.1974 45.949 89.2441 45.8288 89.3342 45.7287C89.4243 45.6286 89.5312 45.5785 89.658 45.5785Z" fill="black"/>
<path d="M7.21908 37.8223C8.67091 37.8223 9.81902 37.3284 10.6701 36.3371C11.5178 35.3459 11.945 34.0008 11.945 32.302V29.0179C10.5466 30.2027 9.0881 30.7968 7.56619 30.7968C5.3 30.7968 3.51442 30.126 2.20277 28.7809C0.894459 27.4359 0.236965 25.42 0.236965 22.73V16.5956H3.36757V22.5965C3.36757 26.1009 4.766 27.8531 7.56285 27.8531C8.7677 27.8531 9.75227 27.496 10.5232 26.7784C11.2942 26.0609 11.7648 25.083 11.9417 23.8447V16.5689H15.0756V32.4355C15.0756 35.1089 14.3414 37.1648 12.8729 38.6066C11.4044 40.0485 9.51865 40.7694 7.21908 40.7694C5.53697 40.7694 4.05844 40.3722 2.78684 39.5745C1.5119 38.7769 0.584068 37.6287 0 36.1235L2.86694 34.7685C3.22072 35.743 3.76807 36.494 4.51234 37.0247C5.25328 37.5587 6.15775 37.8223 7.21908 37.8223Z" fill="#009444"/>
<path d="M44.5196 40.7695H41.389V19.3025C40.5046 19.4426 39.6268 19.6863 38.7624 20.0334C37.8946 20.3772 37.2505 20.6942 36.8233 20.9746L36.1858 21.3717L34.4336 18.8753C35.3014 18.0976 36.5262 17.4468 38.1116 16.9228C39.6969 16.4022 41.3022 16.1385 42.931 16.1385C44.5597 16.1385 46.165 16.3988 47.7504 16.9228C49.3357 17.4435 50.5606 18.0943 51.4283 18.8753L49.6761 21.3717C49.1788 20.9812 48.4145 20.5741 47.3799 20.1502C46.3453 19.7263 45.3941 19.4426 44.5263 19.2991V40.7695H44.5196Z" fill="url(#paint0_linear)"/>
<path d="M31.655 32.2185C30.2732 33.5902 28.5477 34.2777 26.4751 34.2777C24.4025 34.2777 22.677 33.5902 21.2953 32.2185C19.9135 30.8468 19.2227 29.168 19.2227 27.1821C19.2227 25.1963 19.9135 23.5175 21.2953 22.1458C22.677 20.7741 24.4025 20.0865 26.4751 20.0865C28.5477 20.0865 30.2732 20.7741 31.655 22.1458C33.0367 23.5175 33.7276 25.1963 33.7276 27.1821C33.7276 29.168 33.0367 30.8468 31.655 32.2185ZM23.3545 30.4329C24.1756 31.2706 25.2135 31.6878 26.4751 31.6878C27.7367 31.6878 28.7747 31.2706 29.5957 30.4329C30.4167 29.5952 30.8273 28.5138 30.8273 27.1821C30.8273 25.8538 30.4167 24.7691 29.5957 23.9314C28.7747 23.0937 27.7334 22.6765 26.4751 22.6765C25.2135 22.6765 24.1756 23.097 23.3545 23.9314C22.5335 24.7691 22.123 25.8538 22.123 27.1821C22.123 28.5105 22.5335 29.5952 23.3545 30.4329Z" fill="#009444"/>
<path d="M53.2354 32.3083C51.9405 30.9966 51.293 29.2678 51.293 27.1284C51.293 24.9891 51.9571 23.2769 53.2855 21.9986C54.6138 20.7204 56.1858 20.0829 57.9981 20.0829C59.8104 20.0829 61.3056 20.9473 62.4804 22.6728V20.2898H65.3807V34.0672H62.4804V31.8177C61.9263 32.612 61.2255 33.2194 60.3711 33.6433C59.5166 34.0672 58.6589 34.2774 57.7945 34.2774C56.049 34.2774 54.5304 33.6233 53.2354 32.3083ZM54.1933 27.2452C54.1933 28.5669 54.6172 29.6416 55.4615 30.4693C56.3059 31.297 57.3005 31.7109 58.4386 31.7109C59.5767 31.7109 60.5446 31.2937 61.3389 30.4559C62.1333 29.6182 62.5304 28.5435 62.5304 27.2319C62.5304 25.9202 62.1333 24.8222 61.3389 23.9411C60.5446 23.06 59.5701 22.6194 58.4119 22.6194C57.2538 22.6194 56.2626 23.06 55.4348 23.9411C54.6071 24.8255 54.1933 25.9236 54.1933 27.2452Z" fill="url(#paint1_linear)"/>
<path d="M73.4472 26.6114V34.0708H70.5469V20.2935H73.4472V22.8066C73.9144 21.9622 74.5553 21.2947 75.3763 20.8108C76.1973 20.3268 77.0818 20.0865 78.0296 20.0865C79.5849 20.0865 80.8398 20.5605 81.7977 21.5117C82.7556 22.4629 83.2362 23.8346 83.2362 25.6302V34.0741H80.3359V26.508C80.3359 23.9714 79.2812 22.6998 77.1752 22.6998C76.174 22.6998 75.3029 23.0336 74.5586 23.6978C73.8177 24.3619 73.4472 25.3331 73.4472 26.6114Z" fill="url(#paint2_linear)"/>
<path d="M86.8487 17.5465C86.4849 17.1827 86.3047 16.7522 86.3047 16.2516C86.3047 15.7509 86.4849 15.3204 86.8487 14.9566C87.2125 14.5928 87.643 14.4126 88.1437 14.4126C88.6443 14.4126 89.0748 14.5928 89.4386 14.9566C89.8024 15.3204 89.9826 15.7509 89.9826 16.2516C89.9826 16.7522 89.8024 17.1827 89.4386 17.5465C89.0748 17.9103 88.6443 18.0906 88.1437 18.0906C87.643 18.0906 87.2125 17.9103 86.8487 17.5465ZM89.5688 34.0707H86.6685V20.2933H89.5688V34.0707Z" fill="url(#paint3_linear)"/>
<path d="M56.0004 1.20613L42.9539 9.31967C42.7203 6.20575 44.1821 3.07181 47.0191 1.30959C49.8526 -0.455965 53.3103 -0.38254 56.0004 1.20613Z" fill="#009444"/>
<path d="M58.2796 10.421L42.957 9.31632C44.5991 6.65964 47.6229 4.9842 50.9538 5.2245C54.2813 5.46481 57.0347 7.55744 58.2796 10.421Z" fill="url(#paint4_linear)"/>
<path d="M54.7051 19.2192L42.957 9.32009C45.8473 8.13526 49.2783 8.55913 51.8315 10.7085C54.3847 12.8579 55.3827 16.172 54.7051 19.2192Z" fill="#009444"/>
<path d="M29.9141 1.20613L42.9605 9.31967C43.1941 6.20575 41.7323 3.07181 38.8954 1.30959C36.0585 -0.455965 32.6008 -0.38254 29.9141 1.20613Z" fill="#009444"/>
<path d="M27.6328 10.421L42.9554 9.31632C41.3134 6.65964 38.2896 4.9842 34.9587 5.2245C31.6312 5.46481 28.8777 7.55744 27.6328 10.421Z" fill="url(#paint5_linear)"/>
<path d="M31.2065 19.2192L42.9546 9.32009C40.0643 8.13526 36.6333 8.55913 34.0801 10.7085C31.5269 12.8579 30.529 16.172 31.2065 19.2192Z" fill="#009444"/>
<defs>
<linearGradient id="paint0_linear" x1="34.366" y1="-12.4068" x2="50.8263" y2="47.7367" gradientUnits="userSpaceOnUse">
<stop stop-color="#F7941E"/>
<stop offset="1" stop-color="#F15A29"/>
</linearGradient>
<linearGradient id="paint1_linear" x1="49.0644" y1="-9.55134" x2="61.6019" y2="36.2584" gradientUnits="userSpaceOnUse">
<stop stop-color="#F7941E"/>
<stop offset="1" stop-color="#F15A29"/>
</linearGradient>
<linearGradient id="paint2_linear" x1="65.1309" y1="-13.6828" x2="77.6683" y2="32.127" gradientUnits="userSpaceOnUse">
<stop stop-color="#F7941E"/>
<stop offset="1" stop-color="#F15A29"/>
</linearGradient>
<linearGradient id="paint3_linear" x1="76.8101" y1="-17.0462" x2="89.3475" y2="28.7636" gradientUnits="userSpaceOnUse">
<stop stop-color="#F7941E"/>
<stop offset="1" stop-color="#F15A29"/>
</linearGradient>
<linearGradient id="paint4_linear" x1="44.0144" y1="-9.02536" x2="49.9302" y2="7.90598" gradientUnits="userSpaceOnUse">
<stop stop-color="#009444"/>
<stop offset="1" stop-color="#156B38"/>
</linearGradient>
<linearGradient id="paint5_linear" x1="30.3597" y1="-4.25386" x2="36.2755" y2="12.6775" gradientUnits="userSpaceOnUse">
<stop stop-color="#009444"/>
<stop offset="1" stop-color="#156B38"/>
</linearGradient>
</defs>
</svg>
